<svg aria-hidden="true" style="position: absolute; width: 0; height: 0; overflow: hidden;" version="1.1" xmlns="http://www.w3.org/2000/svg" xmlns:xlink="http://www.w3.org/1999/xlink">
<defs>
<symbol id="icon-code-outline" viewBox="0 0 24 24">
<path d="M7.828 19c-0.801 0-1.555-0.312-2.121-0.879l-5.121-5.121 5.121-5.121c1.133-1.134 3.112-1.134 4.243 0.001 1.169 1.168 1.169 3.072-0.001 4.241l-0.878 0.879 0.878 0.879c1.17 1.169 1.17 3.073 0 4.242-0.564 0.567-1.318 0.879-2.121 0.879zM3.414 13l3.707 3.707c0.38 0.379 1.039 0.377 1.413 0.001 0.391-0.391 0.391-1.025 0.001-1.415l-2.292-2.293 2.292-2.293c0.39-0.39 0.39-1.024 0-1.414-0.378-0.379-1.036-0.377-1.414 0l-3.707 3.707z"></path>
<path d="M16.172 19c-0.803 0-1.557-0.312-2.122-0.88-1.169-1.168-1.169-3.072 0.001-4.241l0.878-0.879-0.878-0.879c-1.17-1.169-1.17-3.073 0-4.242 1.129-1.133 3.109-1.134 4.242 0l5.121 5.121-5.121 5.121c-0.566 0.567-1.32 0.879-2.121 0.879zM16.171 9c-0.267 0-0.518 0.104-0.705 0.292-0.391 0.391-0.391 1.025-0.001 1.415l2.292 2.293-2.292 2.293c-0.39 0.39-0.39 1.024 0 1.414 0.377 0.378 1.035 0.379 1.414 0l3.707-3.707-3.707-3.707c-0.19-0.189-0.441-0.293-0.708-0.293z"></path>
</symbol>
<symbol id="icon-flag-outline" viewBox="0 0 24 24">
<path d="M18.383 4.318c-0.374-0.155-0.804-0.069-1.090 0.217-1.264 1.263-3.321 1.264-4.586 0-2.045-2.043-5.37-2.043-7.414 0-0.188 0.187-0.293 0.442-0.293 0.707v13c0 0.552 0.448 1 1 1s1-0.448 1-1v-4.553c1.271-0.997 3.121-0.911 4.293 0.26 2.045 2.043 5.371 2.043 7.414 0 0.188-0.188 0.293-0.442 0.293-0.707v-8c0-0.405-0.244-0.769-0.617-0.924zM11.293 5.949c1.54 1.539 3.808 1.918 5.707 1.138v2.311c-1.446 0.916-3.387 0.749-4.646-0.51-1.448-1.447-3.598-1.743-5.354-0.927v-2.272c1.271-0.997 3.121-0.912 4.293 0.26zM12.707 12.534c-1.022-1.021-2.365-1.532-3.707-1.532-0.681 0-1.361 0.131-2 0.394v-2.311c1.446-0.916 3.387-0.749 4.646 0.51 0.925 0.924 2.139 1.386 3.354 1.386 0.687 0 1.366-0.164 2-0.459v2.272c-1.272 0.997-3.122 0.911-4.293-0.26z"></path>
</symbol>
<symbol id="icon-phone-outline" viewBox="0 0 24 24">
<path d="M19.502 3.672l-1.795-1.793c-0.566-0.567-1.32-0.879-2.121-0.879s-1.555 0.312-2.121 0.879l-1.586 1.586c-1.17 1.17-1.17 3.072 0 4.242l1.379 1.379-4.172 4.172-1.379-1.379c-0.566-0.567-1.32-0.879-2.121-0.879s-1.555 0.312-2.121 0.879l-1.586 1.586c-1.17 1.17-1.17 3.072 0 4.242l1.794 1.793c0.465 0.465 1.796 1.545 4.116 1.545 2.764 0 5.694-1.529 8.711-4.545 6.245-6.246 4.825-11.002 3.002-12.828zM13.293 4.879l1.586-1.586c0.195-0.195 0.451-0.293 0.707-0.293s0.512 0.098 0.707 0.293l1.083 1.082-3.001 3-1.082-1.082c-0.391-0.391-0.391-1.023 0-1.414zM3.293 16.293c-0.391-0.391-0.391-1.023 0-1.414l1.586-1.586c0.195-0.195 0.451-0.293 0.707-0.293s0.512 0.098 0.707 0.293l1.082 1.082-2.999 3-1.083-1.082zM15.086 15.086c-3.083 3.082-5.551 3.959-7.297 3.959-1.349 0-2.267-0.523-2.702-0.959-0.004-0.004 2.995-3.004 2.995-3.004l0.297 0.297c0.195 0.195 0.451 0.293 0.707 0.293s0.512-0.098 0.707-0.293l5.586-5.586c0.391-0.391 0.391-1.023 0-1.414l-0.297-0.297 3.001-3c1.003 1.004 2.467 4.539-2.997 10.004z"></path>
</symbol>
<symbol id="icon-social-tumbler-circular" viewBox="0 0 24 24">
<path d="M14.377 15.59v-1.234c-0.399 0.268-0.788 0.4-1.166 0.4-0.178 0-0.377-0.057-0.6-0.166-0.134-0.090-0.211-0.189-0.234-0.301-0.066-0.133-0.1-0.422-0.1-0.867v-1.966h1.834v-1.233h-1.834v-1.967h-1.066c-0.089 0.467-0.178 0.8-0.267 1-0.11 0.244-0.288 0.467-0.533 0.666-0.245 0.201-0.5 0.345-0.767 0.434v1.101h0.833v2.7c0 0.311 0.044 0.576 0.134 0.799 0.066 0.178 0.199 0.355 0.4 0.533 0.154 0.156 0.377 0.289 0.666 0.4 0.355 0.090 0.666 0.133 0.934 0.133 0.311 0 0.6-0.033 0.866-0.1 0.312-0.067 0.612-0.178 0.9-0.332"></path>
<path d="M12 21c-4.963 0-9-4.037-9-9s4.037-9 9-9 9 4.037 9 9-4.037 9-9 9zM12 5c-3.859 0-7 3.141-7 7s3.141 7 7 7 7-3.141 7-7-3.141-7-7-7z"></path>
</symbol>
<symbol id="icon-social-flickr-circular" viewBox="0 0 24 24">
<path d="M12 21c-2.489 0-4.635-0.89-6.376-2.646-1.741-1.751-2.624-3.889-2.624-6.354 0-2.488 0.884-4.634 2.627-6.375 1.74-1.741 3.885-2.625 6.373-2.625 2.466 0 4.604 0.883 6.354 2.624 1.755 1.742 2.646 3.888 2.646 6.376 0 2.465-0.89 4.604-2.644 6.357-1.751 1.753-3.889 2.643-6.356 2.643zM12 5c-1.966 0-3.588 0.667-4.958 2.040-1.374 1.372-2.042 2.994-2.042 4.96 0 1.944 0.668 3.562 2.043 4.945 1.372 1.383 2.993 2.055 4.957 2.055 1.943 0 3.56-0.673 4.941-2.057 1.386-1.384 2.059-3.002 2.059-4.943 0-1.963-0.672-3.585-2.055-4.957-1.383-1.375-3-2.043-4.945-2.043z"></path>
<path d="M9 14.5c-1.379 0-2.5-1.121-2.5-2.5s1.121-2.5 2.5-2.5 2.5 1.121 2.5 2.5-1.121 2.5-2.5 2.5zM9 10.5c-0.827 0-1.5 0.673-1.5 1.5s0.673 1.5 1.5 1.5 1.5-0.673 1.5-1.5-0.673-1.5-1.5-1.5z"></path>
<path d="M15 14.5c-1.379 0-2.5-1.121-2.5-2.5s1.121-2.5 2.5-2.5 2.5 1.121 2.5 2.5-1.121 2.5-2.5 2.5z"></path>
</symbol>
<symbol id="icon-social-at-circular" viewBox="0 0 24 24">
<path d="M11.844 7.5c-2.481 0-4.438 2.019-4.438 4.5s2.050 4.5 4.531 4.5c0.908 0 1.799-0.27 2.547-0.778 0.228-0.155 0.295-0.466 0.139-0.694-0.155-0.229-0.462-0.287-0.691-0.132-0.58 0.396-1.258 0.604-1.965 0.604-1.93 0-3.499-1.57-3.499-3.5s1.446-3.5 3.376-3.5 3.375 1.57 3.375 3.5v0.25c0 0.414-0.336 0.75-0.75 0.75s-0.75-0.336-0.75-0.75v-1.75c0-0.276-0.099-0.5-0.375-0.5-0.205 0-0.318 0.124-0.396 0.301-0.303-0.188-0.628-0.301-1.010-0.301-1.104 0-1.984 0.896-1.984 2s0.904 2 2.008 2c0.562 0 1.073-0.235 1.438-0.609 0.319 0.369 0.664 0.609 1.192 0.609 0.965 0 1.627-0.785 1.627-1.75v-0.25c0-2.481-1.894-4.5-4.375-4.5zM11.969 13c-0.551 0-1-0.449-1-1s0.449-1 1-1 1 0.449 1 1-0.449 1-1 1z"></path>
<path d="M12 21c-4.963 0-9-4.037-9-9s4.037-9 9-9 9 4.037 9 9-4.037 9-9 9zM12 5c-3.859 0-7 3.141-7 7s3.141 7 7 7 7-3.141 7-7-3.141-7-7-7z"></path>
</symbol>
<symbol id="icon-checkmark" viewBox="0 0 32 32">
<path d="M6 12l-6 6 12 12 20-20-6-6-14 14z"></path>
</symbol>
</defs>
</svg>
